<?xml version="1.0" encoding="UTF-8"?>
<svg width="35px" height="35px" viewBox="0 0 35 35" version="1.1" xmlns="http://www.w3.org/2000/svg" xmlns:xlink="http://www.w3.org/1999/xlink">
    <!-- Generator: Sketch 40.1 (33804) - http://www.bohemiancoding.com/sketch -->
    <title>Scroll Down Icon</title>
    <desc>Created with Sketch.</desc>
    <defs></defs>
    <g id="Page-1" stroke="none" stroke-width="1" fill="none" fill-rule="evenodd">
        <g id="Portfolio" transform="translate(-703.000000, -853.000000)" fill="#FFFFFF">
            <g id="Frontpage">
                <g id="Scroll-Down-Icon" transform="translate(703.000000, 853.000000)">
                    <path d="M17.4647177,1.41129032 C8.61282258,1.41129032 1.41129032,8.61282258 1.41129032,17.4647177 C1.41129032,26.3166129 8.61282258,33.5181452 17.4647177,33.5181452 C26.3166129,33.5181452 33.5181452,26.3166129 33.5181452,17.4647177 C33.5181452,8.61282258 26.3166129,1.41129032 17.4647177,1.41129032 M17.4647177,34.9294355 C7.8346371,34.9294355 0,27.0947984 0,17.4647177 C0,7.8346371 7.8346371,0 17.4647177,0 C27.0947984,0 34.9294355,7.8346371 34.9294355,17.4647177 C34.9294355,27.0947984 27.0947984,34.9294355 17.4647177,34.9294355" id="Fill-1"></path>
                    <path d="M17.4552056,21.7406875 C17.2680685,21.7406875 17.0885524,21.6663125 16.9561734,21.5340746 L9.83466129,14.4124214 C9.55903629,14.1367964 9.55903629,13.6899819 9.83466129,13.4143569 C10.1104274,13.138873 10.5571008,13.1390141 10.8325847,13.4143569 L17.4552056,20.037119 L24.0970202,13.3954456 C24.3723629,13.1199617 24.8194597,13.1199617 25.0948024,13.3954456 C25.3704274,13.6710706 25.3704274,14.1178851 25.0948024,14.393369 L17.9540968,21.5340746 C17.8218589,21.6663125 17.6423427,21.7406875 17.4552056,21.7406875" id="Fill-3"></path>
                </g>
            </g>
        </g>
    </g>
</svg>