<?xml version="1.0" encoding="UTF-8"?>
<svg width="250px" height="42px" viewBox="0 0 250 42" version="1.1" xmlns="http://www.w3.org/2000/svg" xmlns:xlink="http://www.w3.org/1999/xlink">
    <!-- Generator: Sketch 40.1 (33804) - http://www.bohemiancoding.com/sketch -->
    <title>Logo</title>
    <desc>Created with Sketch.</desc>
    <defs>
        <polygon id="path-1" points="15.3809524 22.78116 15.3809524 0.06796 0.174642857 0.06796 0.174642857 22.78116 15.3809524 22.78116"></polygon>
        <polygon id="path-3" points="0 41.9228 249.904762 41.9228 249.904762 0 0 0"></polygon>
    </defs>
    <g id="Page-1" stroke="none" stroke-width="1" fill="none" fill-rule="evenodd">
        <g id="Portfolio" transform="translate(-140.000000, -100.000000)">
            <g id="Frontpage">
                <g id="Logo" transform="translate(140.000000, 100.000000)">
                    <path d="M212.960635,9.19076 L218.040794,9.19076 L220.321746,17.23796 L221.082063,20.37316 L221.186032,20.37316 L221.946349,17.23796 L224.123333,9.19076 L229.203889,9.19076 L229.203889,31.90396 L225.090794,31.90396 L225.090794,24.48356 C225.090794,23.85676 225.11381,23.08476 225.160238,22.16716 C225.205873,21.24996 225.26381,20.30356 225.333254,19.32836 C225.402302,18.35276 225.470952,17.40676 225.540397,16.48876 C225.609444,15.57156 225.678492,14.81156 225.747937,14.20716 L225.643968,14.20716 L223.881667,20.44276 L222.153492,25.84236 L219.907063,25.84236 L218.178889,20.44276 L216.485635,14.20716 L216.34754,14.20716 C216.416587,14.81156 216.485635,15.57156 216.555079,16.48876 C216.62373,17.40676 216.692778,18.35276 216.762222,19.32836 C216.83127,20.30356 216.888413,21.24996 216.935238,22.16716 C216.980873,23.08476 217.003889,23.85676 217.003889,24.48356 L217.003889,31.90396 L212.960635,31.90396 L212.960635,9.19076 L212.960635,9.19076 Z" id="Fill-1" fill="#F96243"></path>
                    <g id="Group-5" transform="translate(234.523810, 9.122800)">
                        <mask id="mask-2" fill="white">
                            <use xlink:href="#path-1"></use>
                        </mask>
                        <g id="Clip-4"></g>
                        <polygon id="Fill-3" fill="#F96243" mask="url(#mask-2)" points="0.174642857 0.06796 15.0353571 0.06796 15.0353571 4.38756 5.25519841 4.38756 5.25519841 8.95116 13.549246 8.95116 13.549246 13.23596 5.25519841 13.23596 5.25519841 18.46156 15.3809921 18.46156 15.3809921 22.78116 0.174642857 22.78116"></polygon>
                    </g>
                    <mask id="mask-4" fill="white">
                        <use xlink:href="#path-3"></use>
                    </mask>
                    <g id="Clip-7"></g>
                    <polygon id="Fill-6" fill="#F96243" mask="url(#mask-4)" points="0 41.9228 191.681746 41.9228 191.681746 0 0 0"></polygon>
                    <path d="M9.8627381,25.76128 C10.6841667,26.43288 11.5778175,26.98128 12.5436905,27.40648 C13.5095635,27.83128 14.4690873,28.04368 15.424246,28.04368 C16.5559921,28.04368 17.3829762,27.85408 17.9044048,27.47328 C18.4262302,27.09288 18.6869444,26.57848 18.6869444,25.92888 C18.6869444,25.59368 18.6095635,25.30288 18.4544048,25.05648 C18.2984524,24.81048 18.076627,24.59248 17.7881349,24.40168 C17.4996429,24.21208 17.1500397,24.03288 16.7393254,23.86448 C16.3282143,23.69688 15.8571825,23.51208 15.324246,23.31088 L12.5270238,22.10288 C11.9278175,21.87928 11.3444841,21.58848 10.7786111,21.22968 C10.2123413,20.87208 9.71829365,20.45288 9.29646825,19.97128 C8.87503968,19.49008 8.53615079,18.93088 8.28138889,18.29248 C8.02543651,17.65528 7.89884921,16.93328 7.89884921,16.12808 C7.89884921,15.23328 8.0925,14.38848 8.48099206,13.59408 C8.86948413,12.79968 9.41353175,12.10608 10.1131349,11.51248 C10.8123413,10.92008 11.6500397,10.45528 12.6270238,10.11968 C13.6032143,9.78448 14.6798016,9.61608 15.8571825,9.61608 C17.1889286,9.61608 18.4762302,9.86248 19.719881,10.35488 C20.9627381,10.84728 22.0837698,11.56288 23.0825794,12.50328 L20.5853571,15.62408 C19.8305952,15.06568 19.0869444,14.63448 18.3544048,14.33248 C17.6218651,14.03048 16.7893254,13.87888 15.8571825,13.87888 C14.9020238,13.87888 14.1639286,14.05248 13.6421032,14.39928 C13.1202778,14.74648 12.8595635,15.23328 12.8595635,15.85928 C12.8595635,16.53088 13.1928968,17.03408 13.8587698,17.37008 C14.5246429,17.70568 15.3794048,18.06368 16.4234524,18.44408 L19.0536111,19.58528 C20.4968651,20.12248 21.6345635,20.86088 22.4671032,21.80008 C23.2988492,22.74048 23.7155159,23.98248 23.7155159,25.52608 C23.7155159,26.44408 23.526627,27.31128 23.1496429,28.12768 C22.7718651,28.94488 22.2282143,29.66048 21.5175,30.27568 C20.8067857,30.89208 19.9305952,31.38368 18.8873413,31.75248 C17.8432937,32.12208 16.6444841,32.30688 15.2913095,32.30688 C13.8254365,32.30688 12.3774206,32.04328 10.944881,31.51808 C9.51313492,30.99208 8.20876984,30.20328 7.03218254,29.15168 L9.8627381,25.76128 Z" id="Fill-8" fill="#FFFFFF" mask="url(#mask-4)"></path>
                    <polygon id="Fill-9" fill="#FFFFFF" mask="url(#mask-4)" points="27.4781746 10.01884 32.3730159 10.01884 32.3730159 18.44404 38.3003968 18.44404 38.3003968 10.01884 43.1952381 10.01884 43.1952381 31.90404 38.3003968 31.90404 38.3003968 22.77364 32.3730159 22.77364 32.3730159 31.90404 27.4781746 31.90404"></polygon>
                    <path d="M57.5140079,22.84132 L57.0140079,20.82732 C56.7259127,19.73092 56.436627,18.56692 56.1485317,17.33612 C55.8600397,16.10612 55.5711508,14.91932 55.2826587,13.77812 L55.1493254,13.77812 C54.8830556,14.94212 54.6052778,16.13372 54.3175794,17.35332 C54.0286905,18.57332 53.7394048,19.73092 53.4513095,20.82732 L52.9521032,22.84132 L57.5140079,22.84132 Z M58.5128175,26.70132 L51.9528968,26.70132 L50.6215476,31.90372 L45.6259127,31.90372 L52.3858333,10.01892 L58.2465476,10.01892 L65.0064683,31.90372 L59.811627,31.90372 L58.5128175,26.70132 Z" id="Fill-10" fill="#FFFFFF" mask="url(#mask-4)"></path>
                    <polygon id="Fill-11" fill="#FFFFFF" mask="url(#mask-4)" points="67.4366667 10.01884 72.3319048 10.01884 72.3319048 18.44404 78.2588889 18.44404 78.2588889 10.01884 83.154127 10.01884 83.154127 31.90404 78.2588889 31.90404 78.2588889 22.77364 72.3319048 22.77364 72.3319048 31.90404 67.4366667 31.90404"></polygon>
                    <path d="M92.5107937,20.08908 L94.9084127,20.08908 C97.5500794,20.08908 98.8711111,19.00388 98.8711111,16.83308 C98.8711111,15.75868 98.5385714,15.00948 97.8723016,14.58388 C97.2060317,14.15908 96.2183333,13.94628 94.9084127,13.94628 L92.5107937,13.94628 L92.5107937,20.08908 Z M99.2369841,31.90388 L95.0746825,24.01588 L92.5107937,24.01588 L92.5107937,31.90388 L87.6159524,31.90388 L87.6159524,10.01868 L95.3080159,10.01868 C96.462381,10.01868 97.5445238,10.13108 98.5544444,10.35508 C99.5647619,10.57868 100.45246,10.95348 101.21873,11.47908 C101.984206,12.00508 102.589365,12.70428 103.033413,13.57708 C103.47746,14.44948 103.699683,15.53548 103.699683,16.83308 C103.699683,18.44388 103.344127,19.76988 102.63381,20.81028 C101.923095,21.85068 100.990952,22.62868 99.8369841,23.14348 L104.731825,31.90388 L99.2369841,31.90388 Z" id="Fill-12" fill="#FFFFFF" mask="url(#mask-4)"></path>
                    <polygon id="Fill-13" fill="#FFFFFF" mask="url(#mask-4)" points="107.728571 27.74176 112.789683 27.74176 112.789683 14.18096 107.728571 14.18096 107.728571 10.01896 122.779365 10.01896 122.779365 14.18096 117.718254 14.18096 117.718254 27.74176 122.779365 27.74176 122.779365 31.90376 107.728571 31.90376"></polygon>
                    <path d="M132.769603,24.51908 L125.776349,10.01868 L131.038254,10.01868 L133.235476,15.28868 C133.546587,16.13948 133.868016,16.96748 134.201349,17.77228 C134.534286,18.57828 134.866825,19.41748 135.200556,20.29028 L135.333492,20.29028 C135.688254,19.41748 136.033095,18.57828 136.365635,17.77228 C136.698571,16.96748 137.031905,16.13948 137.364841,15.28868 L139.562857,10.01868 L144.691032,10.01868 L137.697381,24.51908 L137.697381,31.90388 L132.769603,31.90388 L132.769603,24.51908 Z" id="Fill-14" fill="#FFFFFF" mask="url(#mask-4)"></path>
                    <polygon id="Fill-15" fill="#FFFFFF" mask="url(#mask-4)" points="148.353294 10.01884 162.672341 10.01884 162.672341 14.18084 153.248135 14.18084 153.248135 18.57844 161.239802 18.57844 161.239802 22.70684 153.248135 22.70684 153.248135 27.74164 163.004881 27.74164 163.004881 31.90404 148.353294 31.90404"></polygon>
                    <path d="M172.428452,20.08908 L174.825278,20.08908 C177.466944,20.08908 178.787976,19.00388 178.787976,16.83308 C178.787976,15.75868 178.455437,15.00948 177.789167,14.58388 C177.12369,14.15908 176.135198,13.94628 174.825278,13.94628 L172.428452,13.94628 L172.428452,20.08908 Z M179.154643,31.90388 L174.992341,24.01588 L172.428452,24.01588 L172.428452,31.90388 L167.533214,31.90388 L167.533214,10.01868 L175.225278,10.01868 C176.379246,10.01868 177.461389,10.13108 178.472103,10.35508 C179.481627,10.57868 180.370119,10.95348 181.135595,11.47908 C181.901865,12.00508 182.50623,12.70428 182.951071,13.57708 C183.394325,14.44948 183.616548,15.53548 183.616548,16.83308 C183.616548,18.44388 183.261389,19.76988 182.551468,20.81028 C181.840754,21.85068 180.907817,22.62868 179.753849,23.14348 L184.649484,31.90388 L179.154643,31.90388 Z" id="Fill-16" fill="#FFFFFF" mask="url(#mask-4)"></path>
                    <path d="M196.938651,29.28312 C196.938651,28.80352 197.019206,28.35712 197.181508,27.94352 C197.343413,27.53112 197.567222,27.17112 197.852937,26.86352 C198.138651,26.55712 198.485873,26.31672 198.895794,26.14352 C199.305317,25.97112 199.757698,25.88472 200.252937,25.88472 C200.748175,25.88472 201.200159,25.97112 201.609683,26.14352 C202.019603,26.31672 202.367222,26.55712 202.652937,26.86352 C202.938651,27.17112 203.16246,27.53112 203.324365,27.94352 C203.485873,28.35712 203.567222,28.80352 203.567222,29.28312 C203.567222,30.24312 203.26246,31.04472 202.652937,31.68792 C202.043016,32.33072 201.243413,32.65272 200.252937,32.65272 C199.262063,32.65272 198.46246,32.33072 197.852937,31.68792 C197.243413,31.04472 196.938651,30.24312 196.938651,29.28312" id="Fill-17" fill="#F96243" mask="url(#mask-4)"></path>
                </g>
            </g>
        </g>
    </g>
</svg>