<?xml version="1.0" encoding="UTF-8"?>
<svg width="326px" height="42px" viewBox="0 0 326 42" version="1.1" xmlns="http://www.w3.org/2000/svg" xmlns:xlink="http://www.w3.org/1999/xlink">
    <!-- Generator: Sketch 52 (66869) - http://www.bohemiancoding.com/sketch -->
    <title>Group</title>
    <desc>Created with Sketch.</desc>
    <g id="Page-1" stroke="none" stroke-width="1" fill="none" fill-rule="evenodd">
        <g id="Group">
            <rect id="Rectangle" fill="#F96243" fill-rule="nonzero" x="0" y="0" width="192" height="42"></rect>
            <path d="M23.622,27.88 C23.622,29.9200102 23.0640056,31.4499949 21.948,32.47 C20.8319944,33.4900051 19.2300104,34 17.142,34 L12.03,34 L12.03,31.264 L17.502,31.264 C18.3900044,31.264 19.1099972,31.0000026 19.662,30.472 C20.2140028,29.9439974 20.49,29.3080037 20.49,28.564 L20.49,24.82 C20.49,24.0999964 20.3040019,23.5180022 19.932,23.074 C19.5599981,22.6299978 19.0020037,22.408 18.258,22.408 L17.178,22.408 C15.4019911,22.408 13.9980052,21.8860052 12.966,20.842 C11.9339948,19.7979948 11.418,18.28001 11.418,16.288 L11.418,14.92 C11.418,12.8799898 11.9759944,11.3500051 13.092,10.33 C14.2080056,9.3099949 15.8099896,8.8 17.898,8.8 L23.046,8.8 L23.046,11.536 L17.538,11.536 C16.6499956,11.536 15.9300028,11.7999974 15.378,12.328 C14.8259972,12.8560026 14.55,13.4919963 14.55,14.236 L14.55,16.972 C14.55,17.7160037 14.7899976,18.3339975 15.27,18.826 C15.7500024,19.3180025 16.3739962,19.564 17.142,19.564 L18.222,19.564 C19.9260085,19.564 21.2519953,20.0559951 22.2,21.04 C23.1480047,22.0240049 23.622,23.51199 23.622,25.504 L23.622,27.88 Z M33.27,22.408 L33.27,34 L30.138,34 L30.138,8.8 L33.27,8.8 L33.27,19.744 L40.686,19.744 L40.686,8.8 L43.818,8.8 L43.818,34 L40.686,34 L40.686,22.408 L33.27,22.408 Z M52.926,27.628 L51.522,34 L48.318,34 L54.402,8.8 L58.542,8.8 L64.518,34 L61.314,34 L59.946,27.628 L52.926,27.628 Z M59.37,24.928 L56.418,11.176 L53.502,24.928 L59.37,24.928 Z M72.15,22.408 L72.15,34 L69.018,34 L69.018,8.8 L72.15,8.8 L72.15,19.744 L79.566,19.744 L79.566,8.8 L82.698,8.8 L82.698,34 L79.566,34 L79.566,22.408 L72.15,22.408 Z M91.23,23.56 L91.23,34 L88.098,34 L88.098,8.8 L94.866,8.8 C96.9060102,8.8 98.4479948,9.2499955 99.492,10.15 C100.536005,11.0500045 101.058,12.4719903 101.058,14.416 L101.058,17.872 C101.058,20.5840136 99.9780108,22.2759966 97.818,22.948 L102.822,34 L99.402,34 L94.758,23.56 L91.23,23.56 Z M97.926,14.092 C97.926,13.1799954 97.7160021,12.520002 97.296,12.112 C96.8759979,11.703998 96.2100046,11.5 95.298,11.5 L91.23,11.5 L91.23,20.86 L95.298,20.86 C96.2100046,20.86 96.8759979,20.6500021 97.296,20.23 C97.7160021,19.8099979 97.926,19.1440046 97.926,18.232 L97.926,14.092 Z M113.154,31.372 L113.154,11.428 L109.914,11.428 L109.914,8.8 L119.526,8.8 L119.526,11.428 L116.286,11.428 L116.286,31.372 L119.526,31.372 L119.526,34 L109.914,34 L109.914,31.372 L113.154,31.372 Z M132.486,34 L132.486,22.3 L126.042,8.8 L129.498,8.8 L134.25,19.276 L139.002,8.8 L142.278,8.8 L135.726,22.3 L135.726,34 L132.486,34 Z M159.63,8.8 L159.63,11.428 L150.738,11.428 L150.738,19.672 L158.73,19.672 L158.73,22.3 L150.738,22.3 L150.738,31.372 L159.63,31.372 L159.63,34 L147.606,34 L147.606,8.8 L159.63,8.8 Z M168.99,23.56 L168.99,34 L165.858,34 L165.858,8.8 L172.626,8.8 C174.66601,8.8 176.207995,9.2499955 177.252,10.15 C178.296005,11.0500045 178.818,12.4719903 178.818,14.416 L178.818,17.872 C178.818,20.5840136 177.738011,22.2759966 175.578,22.948 L180.582,34 L177.162,34 L172.518,23.56 L168.99,23.56 Z M175.686,14.092 C175.686,13.1799954 175.476002,12.520002 175.056,12.112 C174.635998,11.703998 173.970005,11.5 173.058,11.5 L168.99,11.5 L168.99,20.86 L173.058,20.86 C173.970005,20.86 174.635998,20.6500021 175.056,20.23 C175.476002,19.8099979 175.686,19.1440046 175.686,18.232 L175.686,14.092 Z" id="SHAHRIYER" fill="#FFFFFF"></path>
            <polygon id="." fill="#F96243" points="204.569134 28 204.569134 34 198.569134 34 198.569134 28"></polygon>
            <path d="M229.92,27.88 C229.92,29.9200102 229.362006,31.4499949 228.246,32.47 C227.129994,33.4900051 225.52801,34 223.44,34 L222,34 C219.91199,34 218.310006,33.4900051 217.194,32.47 C216.077994,31.4499949 215.52,29.9200102 215.52,27.88 L215.52,14.92 C215.52,12.8799898 216.077994,11.3500051 217.194,10.33 C218.310006,9.3099949 219.91199,8.8 222,8.8 L223.44,8.8 C225.52801,8.8 227.129994,9.3099949 228.246,10.33 C229.362006,11.3500051 229.92,12.8799898 229.92,14.92 L229.92,27.88 Z M226.788,14.236 C226.788,13.4919963 226.512003,12.8560026 225.96,12.328 C225.407997,11.7999974 224.688004,11.536 223.8,11.536 L221.64,11.536 C220.751996,11.536 220.032003,11.7999974 219.48,12.328 C218.927997,12.8560026 218.652,13.4919963 218.652,14.236 L218.652,28.564 C218.652,29.3080037 218.927997,29.9439974 219.48,30.472 C220.032003,31.0000026 220.751996,31.264 221.64,31.264 L223.8,31.264 C224.688004,31.264 225.407997,31.0000026 225.96,30.472 C226.512003,29.9439974 226.788,29.3080037 226.788,28.564 L226.788,14.236 Z M238.2,34 L235.284,34 L235.284,8.8 L240.396,8.8 L246.084,31.336 L246.084,8.8 L249,8.8 L249,34 L243.852,34 L238.2,11.464 L238.2,34 Z M259.152,8.8 L259.152,31.264 L267.18,31.264 L267.18,34 L256.02,34 L256.02,8.8 L259.152,8.8 Z M279.456,31.372 L279.456,11.428 L276.216,11.428 L276.216,8.8 L285.828,8.8 L285.828,11.428 L282.588,11.428 L282.588,31.372 L285.828,31.372 L285.828,34 L276.216,34 L276.216,31.372 L279.456,31.372 Z M296.52,34 L293.604,34 L293.604,8.8 L298.716,8.8 L304.404,31.336 L304.404,8.8 L307.32,8.8 L307.32,34 L302.172,34 L296.52,11.464 L296.52,34 Z M325.932,8.8 L325.932,11.428 L317.04,11.428 L317.04,19.672 L325.032,19.672 L325.032,22.3 L317.04,22.3 L317.04,31.372 L325.932,31.372 L325.932,34 L313.908,34 L313.908,8.8 L325.932,8.8 Z" id="ONLINE" fill="#F96243"></path>
        </g>
    </g>
</svg>